<svg xmlns="http://www.w3.org/2000/svg" version="1.1" xmlns:xlink="http://www.w3.org/1999/xlink" xmlns:svgjs="http://svgjs.com/svgjs" width="2000" height="2000"><svg xmlns="http://www.w3.org/2000/svg" xmlns:xlink="http://www.w3.org/1999/xlink" viewBox="0 0 2000 2000">
    <defs>
        <style>.cls-1{isolation:isolate;}.cls-2{fill:#1e1e1e;}.cls-3{fill:#a4d92c;}.cls-4{opacity:0.5;fill:url(#Degradado_sin_nombre_59);}.cls-4,.cls-6{mix-blend-mode:multiply;}.cls-5{fill:#66d9ed;}.cls-6{opacity:0.4;fill:url(#Degradado_sin_nombre_59-2);}</style>
        <linearGradient id="SvgjsLinearGradient1002" x1="500" y1="1375" x2="1500" y2="1375" gradientUnits="userSpaceOnUse">
            <stop offset="0"></stop>
            <stop offset="1" stop-opacity="0"></stop>
        </linearGradient>
        <linearGradient id="SvgjsLinearGradient1001" x1="424.49" y1="1209.66" x2="998.35" y2="751.48" xlink:href="#Degradado_sin_nombre_59"></linearGradient>
    </defs>
    <title>Zyoruk Logo</title>
    <g class="cls-1">
        <g id="SvgjsG1000" data-name="Capa 1">
            <circle class="cls-2" cx="1000" cy="1000" r="1000"></circle>
            <polygon class="cls-3" points="1500 1562.33 500 1437 500 1187.67 1500 1313 1500 1562.33"></polygon>
            <polygon class="cls-4" points="1500 1562.33 500 1437 500 1187.67 1500 1313 1500 1562.33"></polygon>
            <polygon class="cls-5" points="500 437.67 500 687.67 1166.67 937.67 500 1187.67 500 1437.67 833.33 1312.67 1500 1062.67 1500 812.67 500 437.67"></polygon>
            <polygon class="cls-6" points="500 437.67 500 687.67 1166.67 937.67 500 1187.67 500 1437.67 833.33 1312.67 1500 1062.67 1500 812.67 500 437.67"></polygon>
        </g>
    </g>
</svg><style>@media (prefers-color-scheme: light) { :root { filter: none; } }
@media (prefers-color-scheme: dark) { :root { filter: none; } }
</style></svg>